<svg width="40" height="35" viewBox="0 0 40 35" fill="none" xmlns="http://www.w3.org/2000/svg">
<path d="M24.6484 2.94133C24.9721 2.94133 25.2344 2.67898 25.2344 2.35539V0.585937C25.2344 0.262344 24.9721 0 24.6484 0C24.3248 0 24.0625 0.262344 24.0625 0.585937V2.35539C24.0625 2.67898 24.3248 2.94133 24.6484 2.94133ZM21.7653 3.05008C21.9259 3.33492 22.2859 3.42906 22.5635 3.2725C22.8454 3.11352 22.945 2.75617 22.786 2.4743L22.043 1.15711C21.8841 0.875312 21.5266 0.775781 21.2448 0.934687C20.9629 1.09367 20.8633 1.45102 21.0223 1.73289L21.7653 3.05008ZM26.7334 3.2725C27.0104 3.42867 27.371 3.33492 27.5316 3.05008L28.2747 1.73289C28.4337 1.45102 28.3341 1.09367 28.0522 0.934687C27.7705 0.775703 27.413 0.875312 27.254 1.15711L26.5109 2.4743C26.352 2.75617 26.4515 3.11352 26.7334 3.2725ZM37.997 19.3674L33.247 17.7846C32.9777 17.6948 32.7611 17.4923 32.6528 17.2287L30.006 10.789C29.553 9.68601 28.4894 8.97328 27.296 8.97328H27.2656V7.91844C27.2656 6.47531 26.0916 5.30125 24.6484 5.30125C23.2053 5.30125 22.0312 6.47531 22.0312 7.91844V8.97328H18.0499C18.0489 8.97328 18.0479 8.97312 18.0469 8.97312C18.0459 8.97312 18.0448 8.97328 18.0438 8.97328H2.92969C1.31422 8.97328 0 10.2875 0 11.903V15.77C0 16.0936 0.262266 16.3559 0.585938 16.3559C0.909609 16.3559 1.17188 16.0936 1.17188 15.77V11.903C1.17188 10.9337 1.96047 10.1452 2.92969 10.1452H17.4609V22.8012H1.17188V18.5044C1.17188 18.1808 0.909609 17.9184 0.585938 17.9184C0.262266 17.9184 0 18.1808 0 18.5044V27.7233C0 29.3387 1.31422 30.653 2.92969 30.653H4.43062C4.72148 33.0914 6.80086 34.9887 9.31641 34.9887C11.832 34.9887 13.9113 33.0914 14.2022 30.653H24.8798C25.1707 33.0914 27.2501 34.9887 29.7656 34.9887C32.2812 34.9887 34.3605 33.0914 34.6514 30.653H37.0703C38.6858 30.653 40 29.3387 40 27.7233V22.1467C40 20.8834 39.195 19.7664 37.997 19.3674ZM9.31641 33.8169C7.24859 33.8169 5.56641 32.1346 5.56641 30.0669C5.56641 27.9991 7.24859 26.3169 9.31641 26.3169C11.3842 26.3169 13.0664 27.9991 13.0664 30.0669C13.0664 32.1346 11.3842 33.8169 9.31641 33.8169ZM17.4609 29.4811H14.2022C13.9115 27.0425 11.832 25.145 9.31641 25.145C6.80086 25.145 4.72133 27.0425 4.43062 29.4811H2.92969C1.96047 29.4811 1.17188 28.6926 1.17188 27.7233V23.9731H17.4609V29.4811ZM23.2031 7.91844C23.2031 7.12148 23.8515 6.47312 24.6484 6.47312C25.4454 6.47312 26.0938 7.12148 26.0938 7.91844V8.97328H23.2031V7.91844ZM29.7656 33.8169C27.6978 33.8169 26.0156 32.1346 26.0156 30.0669C26.0156 27.9991 27.6978 26.3169 29.7656 26.3169C31.8334 26.3169 33.5156 27.9991 33.5156 30.0669C33.5156 32.1346 31.8334 33.8169 29.7656 33.8169ZM38.8281 22.8012H29.8909C29.5672 22.8012 29.3049 23.0636 29.3049 23.3872C29.3049 23.7108 29.5672 23.9731 29.8909 23.9731H38.8281V27.7233C38.8281 28.6926 38.0395 29.4811 37.0703 29.4811H34.6514C34.3607 27.0425 32.2812 25.145 29.7656 25.145C27.2501 25.145 25.1705 27.0425 24.8798 29.4811H18.6328V23.9731H27.1565C27.4802 23.9731 27.7424 23.7108 27.7424 23.3872C27.7424 23.0636 27.4802 22.8012 27.1565 22.8012H18.6328V10.1452H27.2961C28.0121 10.1452 28.6504 10.5726 28.9221 11.2343L31.5689 17.6741C31.807 18.2533 32.2835 18.6987 32.8765 18.8963L37.6266 20.4791C38.3452 20.7185 38.8281 21.3887 38.8281 22.1466V22.8012ZM27.8296 11.9288C27.68 11.5571 27.3244 11.3169 26.9237 11.3169H20.7812C20.2427 11.3169 19.8047 11.7549 19.8047 12.2934V17.7231C19.8047 18.2616 20.2427 18.6997 20.7812 18.6997H29.1092C29.7834 18.7047 30.2724 17.9841 30.0152 17.3584L27.8296 11.9288ZM20.9766 17.5278V12.4887H26.7917L28.8201 17.5278H20.9766ZM29.7656 28.3091C28.7964 28.3091 28.0078 29.0976 28.0078 30.0669C28.0078 31.0362 28.7964 31.8247 29.7656 31.8247C30.7348 31.8247 31.5234 31.0362 31.5234 30.0669C31.5234 29.0976 30.7348 28.3091 29.7656 28.3091ZM29.7656 30.6528C29.4425 30.6528 29.1797 30.39 29.1797 30.0669C29.1797 29.7437 29.4425 29.4809 29.7656 29.4809C30.0888 29.4809 30.3516 29.7437 30.3516 30.0669C30.3516 30.39 30.0888 30.6528 29.7656 30.6528ZM10.0195 11.3169H8.61328C8.03172 11.3169 7.55859 11.79 7.55859 12.3716V14.7153H5.21484C4.63328 14.7153 4.16016 15.1884 4.16016 15.77V17.1762C4.16016 17.7578 4.63328 18.2309 5.21484 18.2309H7.55859V20.5747C7.55859 21.1562 8.03172 21.6294 8.61328 21.6294H10.0195C10.6011 21.6294 11.0742 21.1562 11.0742 20.5747V18.2309H13.418C13.9995 18.2309 14.4727 17.7578 14.4727 17.1762V15.77C14.4727 15.1884 13.9995 14.7153 13.418 14.7153H11.0742V12.3716C11.0742 11.79 10.6011 11.3169 10.0195 11.3169ZM13.3008 15.8872V17.0591H10.7227C10.2703 17.0591 9.90234 17.427 9.90234 17.8794V20.4575H8.73047V17.8794C8.73047 17.427 8.3625 17.0591 7.91016 17.0591H5.33203V15.8872H7.91016C8.3625 15.8872 8.73047 15.5192 8.73047 15.0669V12.4887H9.90234V15.0669C9.90234 15.5192 10.2703 15.8872 10.7227 15.8872H13.3008ZM9.31641 28.3091C8.34719 28.3091 7.55859 29.0976 7.55859 30.0669C7.55859 31.0362 8.34719 31.8247 9.31641 31.8247C10.2856 31.8247 11.0742 31.0362 11.0742 30.0669C11.0742 29.0976 10.2856 28.3091 9.31641 28.3091ZM9.31641 30.6528C8.99328 30.6528 8.73047 30.39 8.73047 30.0669C8.73047 29.7437 8.99328 29.4809 9.31641 29.4809C9.63953 29.4809 9.90234 29.7437 9.90234 30.0669C9.90234 30.39 9.63953 30.6528 9.31641 30.6528Z" fill="white"/>
</svg>
