<svg width="11" height="13" viewBox="0 0 11 13" fill="none" xmlns="http://www.w3.org/2000/svg">
<path fill-rule="evenodd" clip-rule="evenodd" d="M3.23742 0H7.31393C9.10442 0 10.5514 0.695473 10.5712 2.4634V12.33C10.5712 12.4405 10.5447 12.551 10.4919 12.6485C10.406 12.8045 10.2606 12.9215 10.0823 12.9735C9.91047 13.0255 9.71887 12.9995 9.5603 12.9085L5.27898 10.8026L0.991047 12.9085C0.892603 12.9598 0.779624 12.993 0.667305 12.993C0.297314 12.993 0 12.694 0 12.33V2.4634C0 0.695473 1.45354 0 3.23742 0ZM2.78815 4.9528H7.7632C8.0473 4.9528 8.27855 4.72466 8.27855 4.43932C8.27855 4.15333 8.0473 3.92584 7.7632 3.92584H2.78815C2.50405 3.92584 2.2728 4.15333 2.2728 4.43932C2.2728 4.72466 2.50405 4.9528 2.78815 4.9528Z" fill="white"/>
</svg>
