<svg width="15" height="16" viewBox="0 0 15 16" fill="none" xmlns="http://www.w3.org/2000/svg">
<path d="M12.9368 6.02363C12.9368 6.02363 12.513 11.2804 12.2672 13.4947C12.1501 14.5523 11.4968 15.1721 10.4267 15.1916C8.39033 15.2283 6.35162 15.2306 4.31603 15.1877C3.28653 15.1666 2.64416 14.5391 2.52943 13.5002C2.282 11.2664 1.86052 6.02363 1.86052 6.02363" stroke="#ADADAD" stroke-width="1.5" stroke-linecap="round" stroke-linejoin="round"/>
<path d="M14.0165 3.50373H0.780517" stroke="#ADADAD" stroke-width="1.5" stroke-linecap="round" stroke-linejoin="round"/>
<path d="M11.4661 3.50374C10.8533 3.50374 10.3257 3.07055 10.2055 2.47033L10.0159 1.52123C9.89877 1.08336 9.50227 0.780517 9.05035 0.780517H5.74642C5.29451 0.780517 4.898 1.08336 4.78093 1.52123L4.59126 2.47033C4.47106 3.07055 3.94343 3.50374 3.33073 3.50374" stroke="#ADADAD" stroke-width="1.5" stroke-linecap="round" stroke-linejoin="round"/>
</svg>
