<svg width="21" height="20" viewBox="0 0 21 20" fill="none" xmlns="http://www.w3.org/2000/svg">
<mask id="mask0_1_2016" style="mask-type:alpha" maskUnits="userSpaceOnUse" x="0" y="0" width="21" height="20">
<path fill-rule="evenodd" clip-rule="evenodd" d="M0 0H20.9964V20H0V0Z" fill="white"/>
</mask>
<g mask="url(#mask0_1_2016)">
<path fill-rule="evenodd" clip-rule="evenodd" d="M1.87038 9.35653C3.30825 13.8301 8.98898 17.4474 10.4987 18.3427C12.0134 17.4382 17.7352 13.7809 19.1269 9.36063C20.0407 6.50334 19.1926 2.88404 15.8225 1.79795C14.1897 1.27387 12.2852 1.59283 10.9704 2.61021C10.6956 2.82148 10.314 2.82558 10.0371 2.61636C8.64439 1.56924 6.82499 1.26259 5.16662 1.79795C1.80166 2.88302 0.956579 6.50232 1.87038 9.35653ZM10.4997 20.0001C10.3725 20.0001 10.2464 19.9693 10.1315 19.9068C9.81048 19.7314 2.24882 15.5634 0.405838 9.82625C0.404812 9.82625 0.404812 9.82522 0.404812 9.82522C-0.752051 6.2131 0.536088 1.67385 4.69485 0.333406C6.64757 -0.298356 8.77566 -0.020422 10.4966 1.06568C12.1642 0.0113713 14.3795 -0.279896 16.2932 0.333406C20.4561 1.6759 21.7483 6.21413 20.5925 9.82522C18.809 15.4967 11.1919 19.7273 10.8689 19.9047C10.754 19.9683 10.6268 20.0001 10.4997 20.0001Z" fill="#52D1C6"/>
</g>
<path fill-rule="evenodd" clip-rule="evenodd" d="M16.567 7.8201C16.1701 7.8201 15.8337 7.5155 15.8009 7.11347C15.7332 6.27043 15.1692 5.55868 14.3661 5.2992C13.961 5.16793 13.7395 4.7341 13.8697 4.33105C14.002 3.92697 14.4318 3.70749 14.8379 3.83466C16.2358 4.28695 17.2152 5.52483 17.3352 6.98835C17.369 7.41191 17.0542 7.78318 16.6306 7.81702C16.6091 7.81907 16.5886 7.8201 16.567 7.8201Z" fill="#52D1C6"/>
</svg>
