<svg width="10" height="11" viewBox="0 0 10 11" fill="none" xmlns="http://www.w3.org/2000/svg">
<path fill-rule="evenodd" clip-rule="evenodd" d="M0 4.57478C0 2.04484 2.11414 0 4.67141 0C7.23588 0 9.35002 2.04484 9.35002 4.57478C9.35002 5.84964 8.88637 7.03321 8.12324 8.03638C7.28136 9.14295 6.2437 10.1071 5.07571 10.8639C4.80839 11.0388 4.56714 11.0519 4.27376 10.8639C3.09911 10.1071 2.06145 9.14295 1.22678 8.03638C0.463092 7.03321 0 5.84964 0 4.57478ZM3.13183 4.71721C3.13183 5.56474 3.82342 6.23132 4.6714 6.23132C5.51994 6.23132 6.21818 5.56474 6.21818 4.71721C6.21818 3.87628 5.51994 3.17725 4.6714 3.17725C3.82342 3.17725 3.13183 3.87628 3.13183 4.71721Z" fill="#ADADAD"/>
</svg>
