<svg width="22" height="22" viewBox="0 0 22 22" fill="none" xmlns="http://www.w3.org/2000/svg">
<mask id="mask0_1_1974" style="mask-type:alpha" maskUnits="userSpaceOnUse" x="0" y="0" width="22" height="22">
<path fill-rule="evenodd" clip-rule="evenodd" d="M0 0H21.9992V22H0V0Z" fill="white"/>
</mask>
<g mask="url(#mask0_1_1974)">
<path fill-rule="evenodd" clip-rule="evenodd" d="M5.22875 19.1148C5.82241 19.1148 6.3823 19.34 6.97493 19.5785C10.6055 21.2571 14.8993 20.4936 17.6966 17.6972C21.3876 14.0042 21.3876 7.99701 17.6966 4.30608C15.9095 2.51896 13.5328 1.53533 11.0026 1.53533C8.47137 1.53533 6.09365 2.51999 4.30755 4.30711C1.50916 7.10345 0.747641 11.3973 2.41091 14.993C2.65042 15.5856 2.88175 16.1629 2.88175 16.7627C2.88175 17.3615 2.67601 17.9644 2.49484 18.4966C2.34541 18.9347 2.1192 19.5959 2.26454 19.7413C2.40682 19.8886 3.07213 19.6563 3.51123 19.5058C4.03836 19.3257 4.63612 19.1189 5.22875 19.1148ZM10.977 22.0002C9.41303 22.0002 7.83881 21.6696 6.36592 20.9879C5.93193 20.8139 5.52558 20.6502 5.23387 20.6502C4.89814 20.6522 4.44676 20.8078 4.01073 20.9583C3.11614 21.2653 2.00252 21.6481 1.17856 20.8272C0.357667 20.0053 0.736381 18.8948 1.0414 18.0012C1.19186 17.5611 1.34642 17.1066 1.34642 16.7627C1.34642 16.4802 1.21029 16.1199 1.00148 15.601C-0.915632 11.4607 -0.0292355 6.4709 3.22259 3.22112C5.29835 1.14433 8.06092 0 11.0016 0C13.9423 0 16.7058 1.14331 18.7816 3.2201C23.0723 7.51083 23.0723 14.4915 18.7816 18.7822C16.6782 20.8866 13.846 22.0002 10.977 22.0002Z" fill="#52D1C6"/>
</g>
<path fill-rule="evenodd" clip-rule="evenodd" d="M15.0425 12.4491C14.4775 12.4491 14.0149 11.9916 14.0149 11.4256C14.0149 10.8596 14.4683 10.402 15.0333 10.402H15.0425C15.6075 10.402 16.0661 10.8596 16.0661 11.4256C16.0661 11.9916 15.6075 12.4491 15.0425 12.4491Z" fill="#52D1C6"/>
<path fill-rule="evenodd" clip-rule="evenodd" d="M10.9393 12.4491C10.3743 12.4491 9.91166 11.9916 9.91166 11.4256C9.91166 10.8596 10.3641 10.402 10.9301 10.402H10.9393C11.5043 10.402 11.9629 10.8596 11.9629 11.4256C11.9629 11.9916 11.5043 12.4491 10.9393 12.4491Z" fill="#52D1C6"/>
<path fill-rule="evenodd" clip-rule="evenodd" d="M6.83561 12.4491C6.2706 12.4491 5.80796 11.9916 5.80796 11.4256C5.80796 10.8596 6.26139 10.402 6.82639 10.402H6.83561C7.40061 10.402 7.85916 10.8596 7.85916 11.4256C7.85916 11.9916 7.40061 12.4491 6.83561 12.4491Z" fill="#52D1C6"/>
</svg>
