<svg width="12" height="12" viewBox="0 0 12 12" fill="none" xmlns="http://www.w3.org/2000/svg">
<path d="M9.55006 7.09106C9.39468 7.24164 9.32329 7.45941 9.35868 7.67298L9.89201 10.6246C9.93701 10.8748 9.83142 11.1279 9.62205 11.2725C9.41688 11.4225 9.14391 11.4405 8.92014 11.3205L6.2631 9.93468C6.17071 9.88549 6.06812 9.85909 5.96313 9.85609H5.80056C5.74416 9.86449 5.68897 9.88249 5.63858 9.91009L2.98093 11.3025C2.84955 11.3685 2.70077 11.3919 2.55499 11.3685C2.19983 11.3013 1.96287 10.9629 2.02106 10.606L2.55499 7.65439C2.59038 7.43901 2.51899 7.22004 2.36361 7.06706L0.197299 4.96734C0.0161234 4.79156 -0.0468683 4.5276 0.0359207 4.28943C0.11631 4.05186 0.321483 3.87849 0.56925 3.83949L3.55085 3.40695C3.77762 3.38355 3.9768 3.24557 4.07878 3.0416L5.39261 0.347954C5.42381 0.287962 5.464 0.232769 5.51259 0.185975L5.56659 0.143981C5.59478 0.112785 5.62718 0.0869885 5.66317 0.0659913L5.72857 0.0419944L5.83055 0H6.08312C6.30869 0.0233969 6.50726 0.158379 6.61105 0.359952L7.94227 3.0416C8.03826 3.23777 8.22484 3.37395 8.44021 3.40695L11.4218 3.83949C11.6738 3.87549 11.8843 4.04946 11.9677 4.28943C12.0463 4.53 11.9785 4.79396 11.7938 4.96734L9.55006 7.09106Z" fill="#52D1C6"/>
</svg>
