<svg width="9" height="8" viewBox="0 0 9 8" fill="none" xmlns="http://www.w3.org/2000/svg">
<path d="M7.80165 7.47107H1.19008C1.01473 7.47107 0.846565 7.40142 0.722574 7.27743C0.598583 7.15343 0.528926 6.98527 0.528926 6.80992V2.18182C0.528926 2.00647 0.598583 1.8383 0.722574 1.71431C0.846565 1.59032 1.01473 1.52066 1.19008 1.52066H2.51215L3.17331 0.528926H5.81794L6.4791 1.52066H7.80165C7.977 1.52066 8.14517 1.59032 8.26916 1.71431C8.39315 1.8383 8.46281 2.00647 8.46281 2.18182V6.80992C8.46281 6.98527 8.39315 7.15343 8.26916 7.27743C8.14517 7.40142 7.977 7.47107 7.80165 7.47107Z" stroke="#52D1C6" stroke-linecap="round" stroke-linejoin="round"/>
<path d="M4.49587 5.81818C5.31745 5.81818 5.98347 5.15216 5.98347 4.33058C5.98347 3.509 5.31745 2.84298 4.49587 2.84298C3.67429 2.84298 3.00826 3.509 3.00826 4.33058C3.00826 5.15216 3.67429 5.81818 4.49587 5.81818Z" stroke="#52D1C6" stroke-linecap="round" stroke-linejoin="round"/>
</svg>
